<svg xmlns="http://www.w3.org/2000/svg" viewBox="0 0 82 68" fill="none">
  <path d="M26.3516 29.3463C25.0347 28.893 23.8119 28.6397 22.3741 28.6797C19.8747 28.6797 18.3025 29.8395 18.3025 31.7991C18.3025 34.0253 19.9419 35.4917 22.6966 37.5447C26.4322 40.3308 27.7087 41.6639 27.7087 44.2634C27.7087 47.3828 25.2094 49.3957 20.56 49.3957C19.0416 49.3957 16.905 49.0891 15.2656 48.3293L15.5881 47.9027C17.3081 48.6359 18.9609 48.8492 20.5197 48.8492C23.0191 48.8492 24.7525 48.0893 24.7928 45.7697C24.7928 43.6901 23.7312 42.4104 20.3987 40.0242C17.4022 37.8513 15.3866 36.025 15.3866 33.1855C15.3866 30.0395 18.2622 28.1465 22.28 28.1465C23.8791 28.1465 25.3572 28.4264 26.6337 28.9063L26.3516 29.3463Z" fill="#ffffff"/>
  <path d="M40.0706 28.3994C44.9216 28.3994 47.4613 30.319 47.4613 34.2649C47.4613 38.3842 44.4244 40.5037 39.4122 40.5037H38.1356V49.0887H34.6016V28.3994H40.0706ZM39.3719 39.9438C41.9653 39.9438 43.5644 38.1442 43.5644 34.3583C43.5644 30.5723 42.1266 28.946 39.4122 28.946H38.1356V39.9438H39.3719Z" fill="#ffffff"/>
  <path d="M60.5623 42.0234H54.0317L51.8952 49.0754H51.0352L56.9073 29.7725L56.4908 28.3994H60.1458L66.3002 49.0887H62.6452L60.5623 42.0234ZM60.3877 41.4769L57.3105 31.1456L54.193 41.4769H60.3877Z" fill="#ffffff"/>
  <path d="M39.8687 56.2077C39.8687 57.1009 39.3715 57.5941 38.4846 57.5941H37.1543V52.7417H38.404C39.2371 52.7417 39.6537 53.115 39.6537 53.8615C39.6537 54.4347 39.3312 54.8746 38.6459 54.9946C39.4252 55.0746 39.8687 55.4878 39.8687 56.2077ZM37.853 54.9679H38.189C38.6727 54.9679 38.9549 54.568 38.9549 53.8615C38.9549 53.2483 38.7399 52.875 38.2293 52.875H37.853V54.9679ZM39.143 56.2477C39.143 55.5278 38.8205 55.0879 38.2293 55.0879H37.8396V57.4741H38.2965C38.8474 57.4741 39.143 57.0075 39.143 56.2477Z" fill="#ffffff"/>
  <path d="M43.5921 55.4478V57.6074H42.9068V55.5278L41.8184 52.7417H42.5574L43.5115 55.2479L44.479 52.7417H44.6402L43.5921 55.4478Z" fill="#ffffff"/>
  <path d="M25.4632 62.313V67.1654H24.7913V62.8995L23.4207 67.2054H23.3132L21.9695 63.1262V67.1654H21.8082V62.7262L21.6738 62.313H22.4263L23.6223 66.0456L24.8048 62.313H25.4632Z" fill="#ffffff"/>
  <path d="M27.8828 66.8321C27.8828 66.6054 28.0709 66.4321 28.3128 66.4321C28.5681 66.4321 28.7563 66.6054 28.7563 66.8321C28.7563 67.072 28.5681 67.2453 28.3128 67.2453C28.0844 67.2453 27.8828 67.0587 27.8828 66.8321Z" fill="#ffffff"/>
  <path d="M33.8505 62.313V67.1654H33.1383L31.3511 63.0728V67.1654H31.1898V62.7529L30.9883 62.313H31.7273L33.6892 66.7788V62.313H33.8505Z" fill="#ffffff"/>
  <path d="M38.9148 67.1654H36.4961V62.313H38.7536V62.433H37.1948V64.6325H38.458V64.7658H37.1948V67.0321H38.9148V67.1654Z" fill="#ffffff"/>
  <path d="M43.6727 67.2588C42.1812 67.2588 40.8105 66.4856 40.8105 64.7259C40.8105 63.0729 42.2349 62.2197 43.8205 62.2197C44.3446 62.2197 44.909 62.313 45.3659 62.553L45.3121 62.633C44.8284 62.4197 44.2909 62.3664 43.8743 62.3664C42.4365 62.3664 41.6034 63.2195 41.6034 64.7526C41.6034 66.3389 42.5171 67.1388 43.7399 67.1388C44.4924 67.1388 45.0434 66.9521 45.5137 66.6322L45.5809 66.6989C45.0837 67.0188 44.4655 67.2588 43.6727 67.2588Z" fill="#ffffff"/>
  <path d="M50.4188 62.313V62.433H49.2228V67.1654H48.5241V62.433H47.3281V62.313H50.4188Z" fill="#ffffff"/>
  <path d="M53.6842 65.5124H52.4077L51.9911 67.1654H51.8164L52.9586 62.6329L52.878 62.313H53.5902L54.7995 67.1654H54.0873L53.6842 65.5124ZM53.6573 65.3791L53.0527 62.9529L52.448 65.3791H53.6573Z" fill="#ffffff"/>
  <path d="M59.8907 67.1654H59.1516L58.7485 65.539C58.6007 64.9925 58.3588 64.7525 58.0229 64.7525H57.781V67.1654H57.0957V62.313H58.2513C59.2323 62.313 59.6354 62.8329 59.6354 63.4594C59.6354 64.2326 59.0845 64.6325 58.4126 64.6992C58.9232 64.7792 59.286 65.0458 59.4338 65.6057L59.8907 67.1654ZM57.7945 64.6192H58.117C58.5873 64.6192 58.8963 64.2859 58.8963 63.4994C58.8963 62.8862 58.7485 62.433 58.1304 62.433H57.7945V64.6192Z" fill="#ffffff"/>
  <path d="M32.8278 54.9546H0V55.4078H32.8278V54.9546Z" fill="#ffffff"/>
  <path d="M81.5661 54.9546H48.7383V55.4078H81.5661V54.9546Z" fill="#ffffff"/>
  <path d="M70.0366 25.2403C69.7947 24.3871 69.2437 23.6406 68.6659 22.974C68.0344 22.2542 67.349 21.561 66.5965 20.9611C65.0378 19.708 62.9953 18.8415 60.9797 19.468C59.5419 18.7882 58.1712 17.935 56.8409 17.0685C56.2362 16.6686 55.645 16.2687 55.0403 15.8687C56.1556 16.1353 57.2575 16.4286 58.3594 16.7619C58.749 17.2818 59.1522 17.815 59.7434 18.1083C60.2541 18.3749 60.9125 18.4016 61.4097 18.1083C61.9606 17.775 62.1487 17.0552 61.8397 16.4953C61.5575 15.9754 60.9125 15.7621 60.3347 15.8287C60.0122 15.8687 59.7031 15.962 59.4075 16.082C59.1387 16.1887 58.8834 16.3086 58.6415 16.4553C57.6337 16.1087 56.6125 15.8021 55.5778 15.5355C55.7122 15.5088 55.86 15.4955 55.9944 15.4555C56.6259 15.2955 57.2306 15.0289 57.7815 14.6956C58.6281 15.8154 60.375 15.6421 61.6247 15.2822C63.1969 14.8289 64.6212 13.8691 65.6694 12.616C66.18 12.0028 66.6369 11.3096 66.8116 10.5231C66.9459 9.90989 66.7981 9.25668 66.0456 9.25668C65.6962 9.25668 65.3469 9.40332 65.0244 9.50996C64.5003 9.68326 63.9762 9.86989 63.4656 10.0565C62.4712 10.4031 61.4769 10.7631 60.4825 11.123C59.9584 11.3096 59.4209 11.4829 58.8969 11.6562C58.4669 11.8029 58.0369 11.9895 57.7412 12.3361C57.2709 12.8693 57.2306 13.6692 57.5531 14.2824H57.5397C56.9887 14.549 56.3975 14.749 55.8062 14.8956C55.524 14.9622 55.2284 15.0156 54.9328 15.0422C54.6506 15.0689 54.3012 15.0289 54.0594 15.1889C54.0056 15.1755 53.9519 15.1622 53.8981 15.1489C53.6025 15.0022 53.3069 14.9089 52.9844 14.9489C52.9575 14.9489 52.944 14.9356 52.9172 14.9356C52.514 14.8556 52.0975 14.7889 51.6944 14.709C52.0706 14.549 52.4469 14.3357 52.7828 14.1091C52.7962 14.1091 52.7962 14.1091 52.8097 14.1091C53.1187 14.269 53.4815 14.269 53.804 14.2024C54.1669 14.1357 54.57 13.9891 54.8253 13.7092C55.1478 13.3359 54.9328 12.8027 54.5297 12.5894C53.9922 12.2961 53.4144 12.5894 52.9709 12.9093C52.7694 13.0559 52.5409 13.1893 52.4872 13.4425C52.4603 13.5758 52.4737 13.7092 52.514 13.8291V13.8425C51.99 14.1624 51.439 14.389 50.8478 14.5757C49.3697 14.3357 47.8915 14.1624 46.4 14.1224C45.755 14.1091 45.1234 14.1224 44.4784 14.1491C44.5187 14.1357 44.5456 14.1224 44.5859 14.1091C45.5669 13.7225 46.5209 13.2559 47.4347 12.7227C48.3484 12.1894 49.1681 11.5096 50.055 10.9497C50.5119 10.6697 50.9956 10.4831 51.5197 10.3631C51.8825 10.2831 52.2319 10.2965 52.5812 10.3365C52.5947 10.3631 52.6215 10.3765 52.6484 10.3898C52.9037 10.7497 53.2665 11.0563 53.6831 11.2163C54.1534 11.4029 54.7715 11.4962 55.1612 11.1097C55.4837 10.7897 55.4837 10.2565 55.2687 9.88322C55.0269 9.45664 54.4894 9.27001 54.019 9.28334C53.7369 9.29667 53.4681 9.36332 53.2262 9.50996C53.1187 9.57662 53.0112 9.6566 52.9172 9.73658C52.8365 9.80324 52.7425 9.86989 52.6619 9.94988C52.3125 9.84323 51.9362 9.80324 51.56 9.81657C52.0706 9.53662 52.5812 9.24335 53.0919 8.95007C53.1053 8.9634 53.1053 8.9634 53.1187 8.97673C53.2397 9.05672 53.3875 9.04339 53.5219 9.07005C53.6428 9.09671 53.7772 9.12337 53.8981 9.16336C54.1265 9.23002 54.355 9.31 54.5969 9.32333C55.1344 9.36332 55.6853 9.08338 55.9272 8.59014C56.1691 8.07024 56.0078 7.47036 55.5241 7.16375C55 6.83048 54.4087 7.11043 53.9922 7.47036C53.6428 7.77696 53.2934 8.11023 53.0112 8.48349C53.0112 8.49683 53.0112 8.49682 52.9978 8.51016C52.1512 8.93674 51.2912 9.36332 50.485 9.85656C50.5656 9.76325 50.6597 9.68326 50.7403 9.58995C50.9016 9.42998 51.0494 9.25668 51.1837 9.08338C51.6272 9.1367 52.084 8.93674 52.4469 8.68346C52.7022 8.51016 52.9306 8.31019 53.1322 8.08357C53.3337 7.84362 53.5353 7.53701 53.495 7.21707C53.4278 6.5772 52.6887 6.31058 52.1244 6.43056C51.8422 6.48388 51.6137 6.64385 51.3853 6.80382C51.1837 6.93713 51.009 7.0971 50.8881 7.31039C50.7403 7.59033 50.7 7.9236 50.7269 8.23021C50.7403 8.39018 50.7672 8.55015 50.794 8.71012C50.8075 8.76344 50.8209 8.80343 50.8209 8.85676C50.8209 8.88342 50.8209 8.89675 50.8209 8.92341C50.6866 9.04339 50.5522 9.17669 50.4178 9.31C50.1894 9.53662 49.9609 9.76325 49.7325 9.98987C49.3159 10.4031 48.9128 10.8164 48.4962 11.2163C48.1872 11.4429 47.8647 11.6829 47.5422 11.8828C46.615 12.4827 45.634 12.9893 44.6128 13.4159C43.7125 13.7891 42.7584 14.0424 41.8581 14.4024C40.1247 14.6023 38.4047 14.9089 36.6847 15.2822C37.2759 14.9223 37.8403 14.5223 38.3644 14.0957C39.1975 13.4292 39.95 12.7227 40.6622 11.9495C45.3653 10.5498 49.8937 7.95026 52.42 3.65776C52.4603 3.59111 52.42 3.49779 52.3394 3.48446C51.0359 3.17785 49.7056 3.6311 48.5231 4.16433C47.4078 4.6709 46.3597 5.3241 45.4056 6.08396C44.4381 6.84381 43.5244 7.69698 42.6509 8.56348C41.764 9.44331 40.7562 10.3498 40.259 11.5362C40.259 11.5496 40.259 11.5629 40.2456 11.5762C39.5469 12.2961 38.8212 12.976 38.0419 13.6025C37.3297 14.1757 36.5772 14.7623 35.744 15.1622C35.2737 15.3888 34.7765 15.5621 34.2794 15.6954C34.5481 15.5088 34.8303 15.3088 35.0856 15.0956C36.7115 13.7758 37.8672 12.0961 38.8481 10.2698C39.2915 10.5098 40.0172 10.1632 40.4069 9.96321C41.1997 9.56329 41.9119 9.00339 42.53 8.37685C43.9275 6.96379 44.8278 5.17747 45.5131 3.33782C45.6878 2.84458 45.8625 2.36468 46.0237 1.85811C46.1581 1.44485 46.3059 0.964947 46.1044 0.551693C45.7281 -0.248152 44.7203 -0.0348603 44.1022 0.298409C42.4359 1.2049 40.7294 2.39134 39.5872 3.91104C38.4181 5.47074 37.8 7.56367 38.5659 9.42998C38.5928 9.4833 38.6331 9.49663 38.6734 9.50996C38.2031 10.3765 37.7328 11.243 37.1819 12.0561C36.0531 13.7225 34.5078 15.0822 32.7206 16.0287C32.4519 16.1753 32.1697 16.3086 31.9009 16.4286C31.2425 16.6153 30.584 16.8152 29.9525 17.0552C29.0656 17.3884 28.1384 17.775 27.3725 18.3483C26.9425 18.6149 26.5259 18.8815 26.0959 19.1614C24.994 19.8813 23.8787 20.5878 22.7231 21.2144C22.0378 21.5876 21.3256 21.8942 20.6 22.2008C19.8878 22.5075 19.2025 22.8407 18.5172 23.174C17.0928 23.8405 15.6819 24.5071 14.2709 25.1869C13.4647 25.5735 12.6584 25.9468 11.8387 26.3067C11.0594 26.6666 10.2128 26.9599 9.35279 27.0532C8.98998 27.0932 9.01686 27.6131 9.37967 27.6131C10.9115 27.6131 12.3359 26.9199 13.7065 26.3067C15.1578 25.6668 16.6225 25.0536 18.0469 24.3738C20.7344 23.094 23.3412 21.641 25.8137 19.9879C26.4453 19.5747 27.0769 19.1481 27.7084 18.7482C28.4744 18.4016 29.2134 18.015 30.0062 17.7217C30.92 17.3751 31.8606 17.1085 32.8147 16.8685C34.6287 16.3886 36.4697 15.9754 38.3106 15.6154C38.324 15.6154 38.324 15.6154 38.3375 15.6154C39.614 15.7354 40.8906 16.0287 42.0328 16.6019C41.7237 16.9619 41.5894 17.5217 41.5625 17.9617C41.4953 18.7615 42.0597 19.4547 42.5165 20.0546C43.6722 21.5476 45.0294 22.9207 46.7897 23.6672C47.1794 23.8405 47.5959 23.9605 48.0125 24.0538C48.335 24.1338 48.8994 24.3071 49.2219 24.1471C49.4906 24.0138 49.5175 23.6939 49.5444 23.4273C49.5981 22.974 49.5981 22.5208 49.5578 22.0675C49.3697 20.3612 48.4828 18.7615 47.1525 17.6684C46.4537 17.0818 45.634 16.6419 44.7606 16.402C44.3306 16.2953 43.8737 16.242 43.4303 16.242C43.1615 16.2553 42.9062 16.282 42.6375 16.2687C42.5434 16.2553 42.4762 16.2553 42.409 16.2687C41.67 15.8154 40.8637 15.4688 40.0306 15.2955C41.885 14.9889 43.7394 14.7756 45.6206 14.7623C46.615 14.749 47.6228 14.7889 48.6172 14.8689C48.8456 14.9756 49.1009 15.0689 49.3294 15.1755C49.6787 15.3355 50.0147 15.5355 50.3372 15.7488C50.7 15.9887 51.0628 16.2687 51.3987 16.5753C51.1837 16.8419 51.2509 17.2951 51.2912 17.6017C51.3853 18.5482 51.6944 19.468 52.1512 20.3212C53.065 22.0275 54.5297 23.374 56.2228 24.3071C57.0425 24.7603 57.9428 25.1736 58.8565 25.4002C59.1656 25.4802 59.5284 25.4935 59.7703 25.2536C60.0256 25.0003 59.9584 24.6137 59.9047 24.3071C59.5553 22.4808 58.4534 20.8144 57.0828 19.5747C55.6315 18.2549 53.7772 17.4684 52.0169 16.6286C51.6272 16.122 51.1837 15.6821 50.6462 15.3088C50.4984 15.2022 50.3372 15.1089 50.1894 15.0156C50.8209 15.0956 51.4525 15.1755 52.0706 15.2822C52.5409 15.3622 52.9978 15.4555 53.4547 15.5488C53.589 15.6021 53.71 15.6554 53.8444 15.7354C54.1669 15.9221 54.4759 16.1487 54.7715 16.362C55.4031 16.7886 56.0347 17.2285 56.6797 17.6417C57.7547 18.3349 58.87 18.9615 60.039 19.4947C59.7434 20.0279 60.16 20.8678 60.4019 21.3343C60.805 22.1209 61.4231 22.7874 62.1219 23.3473C62.8609 23.9338 63.6806 24.4137 64.5003 24.8803C65.3469 25.3602 66.2069 25.8535 67.0937 26.2534C67.4969 26.44 67.9 26.6 68.3166 26.7466C68.6928 26.8799 69.2034 27.0932 69.6065 27.0266C70.4262 26.8799 70.1709 25.7202 70.0366 25.2403ZM53.1322 13.4159C53.1456 13.4025 53.159 13.3892 53.1859 13.3759C53.1994 13.3626 53.2397 13.3226 53.1994 13.3626C53.495 13.1226 53.8712 12.7493 54.2878 12.8693C54.4356 12.9093 54.5834 13.0426 54.6237 13.1893C54.6372 13.2292 54.6372 13.2559 54.6372 13.2959C54.6372 13.3092 54.6103 13.3892 54.6237 13.3492C54.6103 13.3759 54.5969 13.3892 54.5834 13.4159C54.57 13.4292 54.57 13.4425 54.5565 13.4559C54.4759 13.5492 54.355 13.6158 54.2341 13.6825C54.0997 13.7491 53.9519 13.8025 53.804 13.8291C53.589 13.8825 53.3472 13.8958 53.1322 13.8558C53.2934 13.7358 53.1725 13.4959 53.0112 13.5225V13.5092L53.0247 13.4959C53.065 13.4825 53.1053 13.4425 53.1322 13.4159ZM53.8444 9.78991C54.1669 9.70992 54.5565 9.74992 54.7984 9.98987C54.9865 10.1765 55.0269 10.5098 54.879 10.7231C54.8656 10.7497 54.8119 10.7897 54.7581 10.8297C54.6775 10.8697 54.5969 10.883 54.5162 10.8964C54.3281 10.9097 54.14 10.8697 53.9519 10.8164C53.71 10.7364 53.495 10.6031 53.3069 10.4431C53.4009 10.4031 53.4412 10.2565 53.3203 10.2032C53.2934 10.1898 53.2666 10.1765 53.2397 10.1632C53.4144 9.98987 53.6025 9.84323 53.8444 9.78991ZM51.2375 7.72364C51.2778 7.53701 51.345 7.39037 51.4928 7.25706C51.6272 7.12376 51.8153 6.99045 51.9765 6.8838C52.3125 6.68384 52.8634 6.63052 53.1187 7.00378C53.28 7.24373 53.159 7.49702 52.9978 7.69698C52.85 7.88361 52.6753 8.07024 52.4872 8.23021C52.2722 8.40351 52.0303 8.55015 51.775 8.64346C51.6809 8.67013 51.5869 8.69679 51.4928 8.71012C51.5062 8.59014 51.3584 8.48349 51.2375 8.56348C51.2375 8.51016 51.2509 8.47016 51.2509 8.41684C51.2106 8.19022 51.1837 7.93693 51.2375 7.72364ZM54.0594 7.9236C54.3415 7.69698 54.7312 7.35038 55.1209 7.47036C55.4703 7.577 55.645 7.99026 55.5106 8.32352C55.3628 8.68345 54.9597 8.85676 54.5834 8.80343C54.355 8.77677 54.14 8.69679 53.925 8.63013C53.8578 8.6168 53.7906 8.59014 53.7234 8.57681C53.804 8.48349 53.7637 8.35019 53.6562 8.28353C53.7906 8.15023 53.925 8.03025 54.0594 7.9236ZM60.0525 16.1753C60.5094 16.0687 61.0065 16.1087 61.3559 16.4553C61.7053 16.8019 61.665 17.4151 61.2619 17.7084C60.899 17.9617 60.375 17.9483 59.9853 17.7617C59.5956 17.5751 59.3 17.2818 59.0447 16.9485C59.085 16.9619 59.1253 16.9752 59.1656 16.9885C59.394 17.0552 59.4612 16.7219 59.2462 16.6419C59.1656 16.6153 59.085 16.5886 58.9909 16.5619C59.3269 16.3886 59.7031 16.2687 60.0525 16.1753Z" fill="#ffffff"/>
</svg>