<svg xmlns="http://www.w3.org/2000/svg" aria-hidden="true" style="position:absolute;width:0;height:0;overflow:hidden">

   <!-- logo --> 
   <symbol viewBox="0 0 82 68" id="logo" >
      <path d="M26.3516 29.3463C25.0347 28.893 23.8119 28.6397 22.3741 28.6797C19.8747 28.6797 18.3025 29.8395 18.3025 31.7991C18.3025 34.0253 19.9419 35.4917 22.6966 37.5447C26.4322 40.3308 27.7087 41.6639 27.7087 44.2634C27.7087 47.3828 25.2094 49.3957 20.56 49.3957C19.0416 49.3957 16.905 49.0891 15.2656 48.3293L15.5881 47.9027C17.3081 48.6359 18.9609 48.8492 20.5197 48.8492C23.0191 48.8492 24.7525 48.0893 24.7928 45.7697C24.7928 43.6901 23.7312 42.4104 20.3987 40.0242C17.4022 37.8513 15.3866 36.025 15.3866 33.1855C15.3866 30.0395 18.2622 28.1465 22.28 28.1465C23.8791 28.1465 25.3572 28.4264 26.6337 28.9063L26.3516 29.3463Z" /><path d="M40.0706 28.3994C44.9216 28.3994 47.4613 30.319 47.4613 34.2649C47.4613 38.3842 44.4244 40.5037 39.4122 40.5037H38.1356V49.0887H34.6016V28.3994H40.0706ZM39.3719 39.9438C41.9653 39.9438 43.5644 38.1442 43.5644 34.3583C43.5644 30.5723 42.1266 28.946 39.4122 28.946H38.1356V39.9438H39.3719Z" /><path d="M60.5623 42.0234H54.0317L51.8952 49.0754H51.0352L56.9073 29.7725L56.4908 28.3994H60.1458L66.3002 49.0887H62.6452L60.5623 42.0234ZM60.3877 41.4769L57.3105 31.1456L54.193 41.4769H60.3877Z" /><path d="M39.8687 56.2077C39.8687 57.1009 39.3715 57.5941 38.4846 57.5941H37.1543V52.7417H38.404C39.2371 52.7417 39.6537 53.115 39.6537 53.8615C39.6537 54.4347 39.3312 54.8746 38.6459 54.9946C39.4252 55.0746 39.8687 55.4878 39.8687 56.2077ZM37.853 54.9679H38.189C38.6727 54.9679 38.9549 54.568 38.9549 53.8615C38.9549 53.2483 38.7399 52.875 38.2293 52.875H37.853V54.9679ZM39.143 56.2477C39.143 55.5278 38.8205 55.0879 38.2293 55.0879H37.8396V57.4741H38.2965C38.8474 57.4741 39.143 57.0075 39.143 56.2477Z" /><path d="M43.5921 55.4478V57.6074H42.9068V55.5278L41.8184 52.7417H42.5574L43.5115 55.2479L44.479 52.7417H44.6402L43.5921 55.4478Z" /><path d="M25.4632 62.313V67.1654H24.7913V62.8995L23.4207 67.2054H23.3132L21.9695 63.1262V67.1654H21.8082V62.7262L21.6738 62.313H22.4263L23.6223 66.0456L24.8048 62.313H25.4632Z" /><path d="M27.8828 66.8321C27.8828 66.6054 28.0709 66.4321 28.3128 66.4321C28.5681 66.4321 28.7563 66.6054 28.7563 66.8321C28.7563 67.072 28.5681 67.2453 28.3128 67.2453C28.0844 67.2453 27.8828 67.0587 27.8828 66.8321Z" /><path d="M33.8505 62.313V67.1654H33.1383L31.3511 63.0728V67.1654H31.1898V62.7529L30.9883 62.313H31.7273L33.6892 66.7788V62.313H33.8505Z" /><path d="M38.9148 67.1654H36.4961V62.313H38.7536V62.433H37.1948V64.6325H38.458V64.7658H37.1948V67.0321H38.9148V67.1654Z" /><path d="M43.6727 67.2588C42.1812 67.2588 40.8105 66.4856 40.8105 64.7259C40.8105 63.0729 42.2349 62.2197 43.8205 62.2197C44.3446 62.2197 44.909 62.313 45.3659 62.553L45.3121 62.633C44.8284 62.4197 44.2909 62.3664 43.8743 62.3664C42.4365 62.3664 41.6034 63.2195 41.6034 64.7526C41.6034 66.3389 42.5171 67.1388 43.7399 67.1388C44.4924 67.1388 45.0434 66.9521 45.5137 66.6322L45.5809 66.6989C45.0837 67.0188 44.4655 67.2588 43.6727 67.2588Z" /><path d="M50.4188 62.313V62.433H49.2228V67.1654H48.5241V62.433H47.3281V62.313H50.4188Z" /><path d="M53.6842 65.5124H52.4077L51.9911 67.1654H51.8164L52.9586 62.6329L52.878 62.313H53.5902L54.7995 67.1654H54.0873L53.6842 65.5124ZM53.6573 65.3791L53.0527 62.9529L52.448 65.3791H53.6573Z" /><path d="M59.8907 67.1654H59.1516L58.7485 65.539C58.6007 64.9925 58.3588 64.7525 58.0229 64.7525H57.781V67.1654H57.0957V62.313H58.2513C59.2323 62.313 59.6354 62.8329 59.6354 63.4594C59.6354 64.2326 59.0845 64.6325 58.4126 64.6992C58.9232 64.7792 59.286 65.0458 59.4338 65.6057L59.8907 67.1654ZM57.7945 64.6192H58.117C58.5873 64.6192 58.8963 64.2859 58.8963 63.4994C58.8963 62.8862 58.7485 62.433 58.1304 62.433H57.7945V64.6192Z" /><path d="M32.8278 54.9546H0V55.4078H32.8278V54.9546Z" /><path d="M81.5661 54.9546H48.7383V55.4078H81.5661V54.9546Z" /><path d="M70.0366 25.2403C69.7947 24.3871 69.2437 23.6406 68.6659 22.974C68.0344 22.2542 67.349 21.561 66.5965 20.9611C65.0378 19.708 62.9953 18.8415 60.9797 19.468C59.5419 18.7882 58.1712 17.935 56.8409 17.0685C56.2362 16.6686 55.645 16.2687 55.0403 15.8687C56.1556 16.1353 57.2575 16.4286 58.3594 16.7619C58.749 17.2818 59.1522 17.815 59.7434 18.1083C60.2541 18.3749 60.9125 18.4016 61.4097 18.1083C61.9606 17.775 62.1487 17.0552 61.8397 16.4953C61.5575 15.9754 60.9125 15.7621 60.3347 15.8287C60.0122 15.8687 59.7031 15.962 59.4075 16.082C59.1387 16.1887 58.8834 16.3086 58.6415 16.4553C57.6337 16.1087 56.6125 15.8021 55.5778 15.5355C55.7122 15.5088 55.86 15.4955 55.9944 15.4555C56.6259 15.2955 57.2306 15.0289 57.7815 14.6956C58.6281 15.8154 60.375 15.6421 61.6247 15.2822C63.1969 14.8289 64.6212 13.8691 65.6694 12.616C66.18 12.0028 66.6369 11.3096 66.8116 10.5231C66.9459 9.90989 66.7981 9.25668 66.0456 9.25668C65.6962 9.25668 65.3469 9.40332 65.0244 9.50996C64.5003 9.68326 63.9762 9.86989 63.4656 10.0565C62.4712 10.4031 61.4769 10.7631 60.4825 11.123C59.9584 11.3096 59.4209 11.4829 58.8969 11.6562C58.4669 11.8029 58.0369 11.9895 57.7412 12.3361C57.2709 12.8693 57.2306 13.6692 57.5531 14.2824H57.5397C56.9887 14.549 56.3975 14.749 55.8062 14.8956C55.524 14.9622 55.2284 15.0156 54.9328 15.0422C54.6506 15.0689 54.3012 15.0289 54.0594 15.1889C54.0056 15.1755 53.9519 15.1622 53.8981 15.1489C53.6025 15.0022 53.3069 14.9089 52.9844 14.9489C52.9575 14.9489 52.944 14.9356 52.9172 14.9356C52.514 14.8556 52.0975 14.7889 51.6944 14.709C52.0706 14.549 52.4469 14.3357 52.7828 14.1091C52.7962 14.1091 52.7962 14.1091 52.8097 14.1091C53.1187 14.269 53.4815 14.269 53.804 14.2024C54.1669 14.1357 54.57 13.9891 54.8253 13.7092C55.1478 13.3359 54.9328 12.8027 54.5297 12.5894C53.9922 12.2961 53.4144 12.5894 52.9709 12.9093C52.7694 13.0559 52.5409 13.1893 52.4872 13.4425C52.4603 13.5758 52.4737 13.7092 52.514 13.8291V13.8425C51.99 14.1624 51.439 14.389 50.8478 14.5757C49.3697 14.3357 47.8915 14.1624 46.4 14.1224C45.755 14.1091 45.1234 14.1224 44.4784 14.1491C44.5187 14.1357 44.5456 14.1224 44.5859 14.1091C45.5669 13.7225 46.5209 13.2559 47.4347 12.7227C48.3484 12.1894 49.1681 11.5096 50.055 10.9497C50.5119 10.6697 50.9956 10.4831 51.5197 10.3631C51.8825 10.2831 52.2319 10.2965 52.5812 10.3365C52.5947 10.3631 52.6215 10.3765 52.6484 10.3898C52.9037 10.7497 53.2665 11.0563 53.6831 11.2163C54.1534 11.4029 54.7715 11.4962 55.1612 11.1097C55.4837 10.7897 55.4837 10.2565 55.2687 9.88322C55.0269 9.45664 54.4894 9.27001 54.019 9.28334C53.7369 9.29667 53.4681 9.36332 53.2262 9.50996C53.1187 9.57662 53.0112 9.6566 52.9172 9.73658C52.8365 9.80324 52.7425 9.86989 52.6619 9.94988C52.3125 9.84323 51.9362 9.80324 51.56 9.81657C52.0706 9.53662 52.5812 9.24335 53.0919 8.95007C53.1053 8.9634 53.1053 8.9634 53.1187 8.97673C53.2397 9.05672 53.3875 9.04339 53.5219 9.07005C53.6428 9.09671 53.7772 9.12337 53.8981 9.16336C54.1265 9.23002 54.355 9.31 54.5969 9.32333C55.1344 9.36332 55.6853 9.08338 55.9272 8.59014C56.1691 8.07024 56.0078 7.47036 55.5241 7.16375C55 6.83048 54.4087 7.11043 53.9922 7.47036C53.6428 7.77696 53.2934 8.11023 53.0112 8.48349C53.0112 8.49683 53.0112 8.49682 52.9978 8.51016C52.1512 8.93674 51.2912 9.36332 50.485 9.85656C50.5656 9.76325 50.6597 9.68326 50.7403 9.58995C50.9016 9.42998 51.0494 9.25668 51.1837 9.08338C51.6272 9.1367 52.084 8.93674 52.4469 8.68346C52.7022 8.51016 52.9306 8.31019 53.1322 8.08357C53.3337 7.84362 53.5353 7.53701 53.495 7.21707C53.4278 6.5772 52.6887 6.31058 52.1244 6.43056C51.8422 6.48388 51.6137 6.64385 51.3853 6.80382C51.1837 6.93713 51.009 7.0971 50.8881 7.31039C50.7403 7.59033 50.7 7.9236 50.7269 8.23021C50.7403 8.39018 50.7672 8.55015 50.794 8.71012C50.8075 8.76344 50.8209 8.80343 50.8209 8.85676C50.8209 8.88342 50.8209 8.89675 50.8209 8.92341C50.6866 9.04339 50.5522 9.17669 50.4178 9.31C50.1894 9.53662 49.9609 9.76325 49.7325 9.98987C49.3159 10.4031 48.9128 10.8164 48.4962 11.2163C48.1872 11.4429 47.8647 11.6829 47.5422 11.8828C46.615 12.4827 45.634 12.9893 44.6128 13.4159C43.7125 13.7891 42.7584 14.0424 41.8581 14.4024C40.1247 14.6023 38.4047 14.9089 36.6847 15.2822C37.2759 14.9223 37.8403 14.5223 38.3644 14.0957C39.1975 13.4292 39.95 12.7227 40.6622 11.9495C45.3653 10.5498 49.8937 7.95026 52.42 3.65776C52.4603 3.59111 52.42 3.49779 52.3394 3.48446C51.0359 3.17785 49.7056 3.6311 48.5231 4.16433C47.4078 4.6709 46.3597 5.3241 45.4056 6.08396C44.4381 6.84381 43.5244 7.69698 42.6509 8.56348C41.764 9.44331 40.7562 10.3498 40.259 11.5362C40.259 11.5496 40.259 11.5629 40.2456 11.5762C39.5469 12.2961 38.8212 12.976 38.0419 13.6025C37.3297 14.1757 36.5772 14.7623 35.744 15.1622C35.2737 15.3888 34.7765 15.5621 34.2794 15.6954C34.5481 15.5088 34.8303 15.3088 35.0856 15.0956C36.7115 13.7758 37.8672 12.0961 38.8481 10.2698C39.2915 10.5098 40.0172 10.1632 40.4069 9.96321C41.1997 9.56329 41.9119 9.00339 42.53 8.37685C43.9275 6.96379 44.8278 5.17747 45.5131 3.33782C45.6878 2.84458 45.8625 2.36468 46.0237 1.85811C46.1581 1.44485 46.3059 0.964947 46.1044 0.551693C45.7281 -0.248152 44.7203 -0.0348603 44.1022 0.298409C42.4359 1.2049 40.7294 2.39134 39.5872 3.91104C38.4181 5.47074 37.8 7.56367 38.5659 9.42998C38.5928 9.4833 38.6331 9.49663 38.6734 9.50996C38.2031 10.3765 37.7328 11.243 37.1819 12.0561C36.0531 13.7225 34.5078 15.0822 32.7206 16.0287C32.4519 16.1753 32.1697 16.3086 31.9009 16.4286C31.2425 16.6153 30.584 16.8152 29.9525 17.0552C29.0656 17.3884 28.1384 17.775 27.3725 18.3483C26.9425 18.6149 26.5259 18.8815 26.0959 19.1614C24.994 19.8813 23.8787 20.5878 22.7231 21.2144C22.0378 21.5876 21.3256 21.8942 20.6 22.2008C19.8878 22.5075 19.2025 22.8407 18.5172 23.174C17.0928 23.8405 15.6819 24.5071 14.2709 25.1869C13.4647 25.5735 12.6584 25.9468 11.8387 26.3067C11.0594 26.6666 10.2128 26.9599 9.35279 27.0532C8.98998 27.0932 9.01686 27.6131 9.37967 27.6131C10.9115 27.6131 12.3359 26.9199 13.7065 26.3067C15.1578 25.6668 16.6225 25.0536 18.0469 24.3738C20.7344 23.094 23.3412 21.641 25.8137 19.9879C26.4453 19.5747 27.0769 19.1481 27.7084 18.7482C28.4744 18.4016 29.2134 18.015 30.0062 17.7217C30.92 17.3751 31.8606 17.1085 32.8147 16.8685C34.6287 16.3886 36.4697 15.9754 38.3106 15.6154C38.324 15.6154 38.324 15.6154 38.3375 15.6154C39.614 15.7354 40.8906 16.0287 42.0328 16.6019C41.7237 16.9619 41.5894 17.5217 41.5625 17.9617C41.4953 18.7615 42.0597 19.4547 42.5165 20.0546C43.6722 21.5476 45.0294 22.9207 46.7897 23.6672C47.1794 23.8405 47.5959 23.9605 48.0125 24.0538C48.335 24.1338 48.8994 24.3071 49.2219 24.1471C49.4906 24.0138 49.5175 23.6939 49.5444 23.4273C49.5981 22.974 49.5981 22.5208 49.5578 22.0675C49.3697 20.3612 48.4828 18.7615 47.1525 17.6684C46.4537 17.0818 45.634 16.6419 44.7606 16.402C44.3306 16.2953 43.8737 16.242 43.4303 16.242C43.1615 16.2553 42.9062 16.282 42.6375 16.2687C42.5434 16.2553 42.4762 16.2553 42.409 16.2687C41.67 15.8154 40.8637 15.4688 40.0306 15.2955C41.885 14.9889 43.7394 14.7756 45.6206 14.7623C46.615 14.749 47.6228 14.7889 48.6172 14.8689C48.8456 14.9756 49.1009 15.0689 49.3294 15.1755C49.6787 15.3355 50.0147 15.5355 50.3372 15.7488C50.7 15.9887 51.0628 16.2687 51.3987 16.5753C51.1837 16.8419 51.2509 17.2951 51.2912 17.6017C51.3853 18.5482 51.6944 19.468 52.1512 20.3212C53.065 22.0275 54.5297 23.374 56.2228 24.3071C57.0425 24.7603 57.9428 25.1736 58.8565 25.4002C59.1656 25.4802 59.5284 25.4935 59.7703 25.2536C60.0256 25.0003 59.9584 24.6137 59.9047 24.3071C59.5553 22.4808 58.4534 20.8144 57.0828 19.5747C55.6315 18.2549 53.7772 17.4684 52.0169 16.6286C51.6272 16.122 51.1837 15.6821 50.6462 15.3088C50.4984 15.2022 50.3372 15.1089 50.1894 15.0156C50.8209 15.0956 51.4525 15.1755 52.0706 15.2822C52.5409 15.3622 52.9978 15.4555 53.4547 15.5488C53.589 15.6021 53.71 15.6554 53.8444 15.7354C54.1669 15.9221 54.4759 16.1487 54.7715 16.362C55.4031 16.7886 56.0347 17.2285 56.6797 17.6417C57.7547 18.3349 58.87 18.9615 60.039 19.4947C59.7434 20.0279 60.16 20.8678 60.4019 21.3343C60.805 22.1209 61.4231 22.7874 62.1219 23.3473C62.8609 23.9338 63.6806 24.4137 64.5003 24.8803C65.3469 25.3602 66.2069 25.8535 67.0937 26.2534C67.4969 26.44 67.9 26.6 68.3166 26.7466C68.6928 26.8799 69.2034 27.0932 69.6065 27.0266C70.4262 26.8799 70.1709 25.7202 70.0366 25.2403ZM53.1322 13.4159C53.1456 13.4025 53.159 13.3892 53.1859 13.3759C53.1994 13.3626 53.2397 13.3226 53.1994 13.3626C53.495 13.1226 53.8712 12.7493 54.2878 12.8693C54.4356 12.9093 54.5834 13.0426 54.6237 13.1893C54.6372 13.2292 54.6372 13.2559 54.6372 13.2959C54.6372 13.3092 54.6103 13.3892 54.6237 13.3492C54.6103 13.3759 54.5969 13.3892 54.5834 13.4159C54.57 13.4292 54.57 13.4425 54.5565 13.4559C54.4759 13.5492 54.355 13.6158 54.2341 13.6825C54.0997 13.7491 53.9519 13.8025 53.804 13.8291C53.589 13.8825 53.3472 13.8958 53.1322 13.8558C53.2934 13.7358 53.1725 13.4959 53.0112 13.5225V13.5092L53.0247 13.4959C53.065 13.4825 53.1053 13.4425 53.1322 13.4159ZM53.8444 9.78991C54.1669 9.70992 54.5565 9.74992 54.7984 9.98987C54.9865 10.1765 55.0269 10.5098 54.879 10.7231C54.8656 10.7497 54.8119 10.7897 54.7581 10.8297C54.6775 10.8697 54.5969 10.883 54.5162 10.8964C54.3281 10.9097 54.14 10.8697 53.9519 10.8164C53.71 10.7364 53.495 10.6031 53.3069 10.4431C53.4009 10.4031 53.4412 10.2565 53.3203 10.2032C53.2934 10.1898 53.2666 10.1765 53.2397 10.1632C53.4144 9.98987 53.6025 9.84323 53.8444 9.78991ZM51.2375 7.72364C51.2778 7.53701 51.345 7.39037 51.4928 7.25706C51.6272 7.12376 51.8153 6.99045 51.9765 6.8838C52.3125 6.68384 52.8634 6.63052 53.1187 7.00378C53.28 7.24373 53.159 7.49702 52.9978 7.69698C52.85 7.88361 52.6753 8.07024 52.4872 8.23021C52.2722 8.40351 52.0303 8.55015 51.775 8.64346C51.6809 8.67013 51.5869 8.69679 51.4928 8.71012C51.5062 8.59014 51.3584 8.48349 51.2375 8.56348C51.2375 8.51016 51.2509 8.47016 51.2509 8.41684C51.2106 8.19022 51.1837 7.93693 51.2375 7.72364ZM54.0594 7.9236C54.3415 7.69698 54.7312 7.35038 55.1209 7.47036C55.4703 7.577 55.645 7.99026 55.5106 8.32352C55.3628 8.68345 54.9597 8.85676 54.5834 8.80343C54.355 8.77677 54.14 8.69679 53.925 8.63013C53.8578 8.6168 53.7906 8.59014 53.7234 8.57681C53.804 8.48349 53.7637 8.35019 53.6562 8.28353C53.7906 8.15023 53.925 8.03025 54.0594 7.9236ZM60.0525 16.1753C60.5094 16.0687 61.0065 16.1087 61.3559 16.4553C61.7053 16.8019 61.665 17.4151 61.2619 17.7084C60.899 17.9617 60.375 17.9483 59.9853 17.7617C59.5956 17.5751 59.3 17.2818 59.0447 16.9485C59.085 16.9619 59.1253 16.9752 59.1656 16.9885C59.394 17.0552 59.4612 16.7219 59.2462 16.6419C59.1656 16.6153 59.085 16.5886 58.9909 16.5619C59.3269 16.3886 59.7031 16.2687 60.0525 16.1753Z" />
   </symbol>

   <symbol viewBox="0 0 16 16" id="arr_down" >
      <path d="M8.00004 11L8.70715 11.7071C8.31662 12.0976 7.68346 12.0976 7.29293 11.7071L8.00004 11ZM13.7072 6.70711L8.70715 11.7071L7.29293 10.2929L12.2929 5.2929L13.7072 6.70711ZM7.29293 11.7071L2.29294 6.70711L3.70714 5.2929L8.70715 10.2929L7.29293 11.7071Z"/>
   </symbol>

   <symbol viewBox="0 0 14 29" id="by" >
      <path d="M13.0485 28.2989C13.0485 28.5084 13.0288 28.6776 12.9894 28.8066C12.9631 28.9355 12.9105 29 12.8317 29C12.674 29 12.5557 28.7341 12.4769 28.2022C12.3849 27.5897 12.2338 27.1223 12.0235 26.7999C11.8133 26.4776 11.4716 26.3164 10.9986 26.3164L2.12876 26.3164C1.6557 26.3164 1.30748 26.4373 1.08409 26.679C0.860701 26.9208 0.729297 27.3399 0.689875 27.9362C0.663595 28.2102 0.617603 28.4117 0.551901 28.5406C0.473057 28.6696 0.387644 28.7341 0.29566 28.7341C0.216818 28.7341 0.164256 28.6696 0.137974 28.5406C0.0985523 28.4117 0.0788419 28.2425 0.0788419 28.0329C0.0788418 27.5978 0.0788418 27.2593 0.0788418 27.0175C0.0788418 26.7757 0.0854119 26.5501 0.098553 26.3406C0.098553 26.1149 0.098553 25.8409 0.098553 25.5186C0.098553 25.2123 0.0919828 24.9464 0.0788417 24.7207C0.0525611 24.4951 0.0328503 24.2453 0.01971 23.9713C0.00656966 23.6811 -2.49051e-07 23.3024 -2.69483e-07 22.835C-3.51913e-07 20.9492 0.223388 19.5469 0.670164 18.6282C1.1038 17.6934 1.85938 17.226 2.9369 17.226C3.38368 17.226 3.77789 17.3227 4.11954 17.5161C4.44806 17.6934 4.68458 17.8707 4.82913 18.048C5.03938 18.3059 5.20363 18.5396 5.3219 18.7491C5.42702 18.9586 5.54529 19.2649 5.67669 19.6678C5.68983 19.7323 5.72268 19.7645 5.77525 19.7645C5.81467 19.7645 5.84752 19.7323 5.8738 19.6678C5.96578 19.2971 6.08405 18.9183 6.22859 18.5315C6.37314 18.1286 6.56368 17.7579 6.8002 17.4194C7.02359 17.0648 7.32582 16.7827 7.7069 16.5732C8.07483 16.3475 8.54789 16.2347 9.12607 16.2347C9.8488 16.2347 10.4204 16.3798 10.8409 16.6699C11.2614 16.9439 11.5833 17.2743 11.8067 17.6611C12.0301 18.048 12.2141 18.4106 12.3586 18.7491C12.5689 19.2487 12.7331 19.829 12.8514 20.4898C12.9697 21.1506 13.0288 21.9404 13.0288 22.8591C13.0288 23.0687 13.0157 23.383 12.9894 23.802C12.9631 24.2211 12.95 24.6724 12.95 25.1559C12.95 25.575 12.9565 25.9296 12.9697 26.2197C12.9828 26.5098 12.9959 26.816 13.0091 27.1384C13.0354 27.4446 13.0485 27.8315 13.0485 28.2989ZM12.2207 22.5207C12.2207 21.8115 12.0893 21.1506 11.8264 20.5382C11.5636 19.9257 11.2088 19.4341 10.7621 19.0634C10.3021 18.6927 9.78967 18.5073 9.22463 18.5073C8.71215 18.5073 8.29165 18.6121 7.96314 18.8216C7.62149 19.0312 7.34553 19.2729 7.13529 19.5469C6.92504 19.8209 6.77392 20.0708 6.68194 20.2964C6.57682 20.5059 6.47169 20.8363 6.36657 21.2876C6.2483 21.7389 6.18917 22.3272 6.18917 23.0525C6.18917 23.5683 6.27458 23.931 6.44541 24.1405C6.61624 24.3339 6.76735 24.4306 6.89876 24.4306L10.8212 24.4306C11.3731 24.4306 11.7476 24.2694 11.9447 23.9471C12.1287 23.6086 12.2207 23.1331 12.2207 22.5207ZM5.63727 23.3185C5.63727 22.8833 5.59785 22.4159 5.51901 21.9162C5.44016 21.4005 5.28905 20.8928 5.06566 20.3931C4.98682 20.2158 4.79628 19.9902 4.49405 19.7162C4.19182 19.4422 3.75818 19.3052 3.19314 19.3052C2.81206 19.3052 2.42442 19.3938 2.03021 19.5711C1.62285 19.7484 1.2812 20.0869 1.00525 20.5865C0.729296 21.0862 0.591321 21.8356 0.591321 22.835C0.591321 23.4958 0.663594 23.931 0.808139 24.1405C0.952685 24.3339 1.17607 24.4306 1.4783 24.4306L4.90797 24.4306C5.24963 24.4306 5.45987 24.2936 5.53872 24.0196C5.60442 23.7456 5.63727 23.5119 5.63727 23.3185Z"/>
      <path d="M13.0485 11.3418C13.0485 11.5513 13.0288 11.7205 12.9894 11.8495C12.9631 11.9784 12.9105 12.0429 12.8317 12.0429C12.7397 12.0429 12.6674 11.9784 12.6149 11.8495C12.5623 11.7205 12.5163 11.5191 12.4769 11.2451C12.3849 10.6326 12.2075 10.1652 11.9447 9.84283C11.6688 9.52047 11.2943 9.35929 10.8212 9.35929L7.90401 9.35929C7.6412 9.35929 7.35867 9.44794 7.05644 9.62524C6.74107 9.78641 6.53739 9.89924 6.44541 9.96371L2.66095 12.7924C2.50326 12.9052 2.28644 13.0825 2.01049 13.3243C1.7214 13.566 1.45202 13.832 1.20235 14.1221C0.952685 14.3961 0.794999 14.6701 0.729297 14.9441C0.663594 15.202 0.597891 15.4035 0.532188 15.5485C0.466486 15.6775 0.387643 15.7419 0.29566 15.7419C0.216817 15.7419 0.164255 15.6775 0.137974 15.5485C0.0985518 15.4196 0.0788413 15.2503 0.0788413 15.0408C0.0788413 14.6701 0.0919818 14.243 0.118263 13.7594C0.131404 13.2759 0.137973 12.7601 0.137973 12.2121C0.137973 11.8414 0.131403 11.4949 0.118263 11.1725C0.105123 10.8341 0.0985524 10.5359 0.0985523 10.278C0.0985523 10.0685 0.118263 9.89924 0.157684 9.7703C0.183965 9.64136 0.236528 9.57689 0.31537 9.57689C0.407354 9.57689 0.486197 9.64136 0.5519 9.7703C0.604462 9.89924 0.657023 10.1007 0.709585 10.3747C0.762147 10.6004 0.821279 10.7857 0.886981 10.9308C0.952684 11.0758 1.05781 11.1484 1.20235 11.1484C1.37318 11.1484 1.60971 11.0436 1.91194 10.8341L5.26277 8.60982C5.7621 8.28746 6.01177 8.06181 6.01177 7.93287C6.01177 7.83616 5.95921 7.7314 5.85409 7.61858C5.73582 7.50575 5.53872 7.34457 5.26277 7.13504C4.80285 6.76433 4.36264 6.43392 3.94215 6.1438C3.52165 5.85368 3.01574 5.50715 2.42442 5.1042C2.20103 4.94303 2.01049 4.8302 1.85281 4.76573C1.68198 4.70126 1.53744 4.66902 1.41917 4.66902C1.1695 4.66902 0.998676 4.78185 0.906693 5.0075C0.814709 5.21703 0.755577 5.43462 0.729296 5.66026C0.703015 5.82144 0.657023 5.99874 0.591321 6.19215C0.512478 6.36945 0.427064 6.4581 0.33508 6.4581C0.256238 6.4581 0.203676 6.39363 0.177396 6.26468C0.137974 6.13574 0.118263 5.96651 0.118263 5.75697C0.118263 5.38626 0.124833 5.08002 0.137973 4.83826C0.137973 4.59649 0.137973 4.29832 0.137973 3.94372C0.137973 3.44407 0.131403 2.9686 0.118263 2.5173C0.0919813 2.066 0.0788407 1.70335 0.0788407 1.42935C0.0788407 1.21982 0.0985511 1.05058 0.137973 0.92164C0.164254 0.792698 0.216817 0.728228 0.295659 0.728228C0.387642 0.728228 0.473056 0.857168 0.551899 1.11505C0.630742 1.37294 0.709584 1.67112 0.788427 2.00959C0.880411 2.42865 1.07095 2.78324 1.36004 3.07336C1.63599 3.34736 2.04334 3.70196 2.58211 4.13714C2.98946 4.45949 3.33111 4.73349 3.60706 4.95914C3.88301 5.16867 4.13925 5.37015 4.37578 5.56356C4.61231 5.74085 4.86198 5.92621 5.12479 6.11962C5.37446 6.31304 5.68326 6.54675 6.0512 6.82075C6.32715 7.03028 6.55053 7.17534 6.72136 7.25593C6.89219 7.33652 7.05644 7.38487 7.21413 7.40099C7.35868 7.4171 7.56235 7.42516 7.82516 7.42516L10.8212 7.42516C11.268 7.42516 11.6359 7.25593 11.925 6.91745C12.2009 6.57898 12.3849 6.11156 12.4769 5.51521C12.5163 5.2412 12.5623 5.03973 12.6149 4.91079C12.6674 4.78185 12.7397 4.71738 12.8317 4.71738C12.9105 4.71738 12.9631 4.78185 12.9894 4.91079C13.0288 5.03973 13.0485 5.20897 13.0485 5.4185C13.0485 5.85368 13.0354 6.21633 13.0091 6.50645C12.9959 6.78045 12.9828 7.0464 12.9697 7.30428C12.9565 7.56216 12.95 7.87646 12.95 8.24717C12.95 8.65011 12.9565 9.0047 12.9697 9.31094C12.9828 9.60106 12.9959 9.9073 13.0091 10.2297C13.0354 10.5359 13.0485 10.9066 13.0485 11.3418Z"/>
   </symbol>

   <symbol viewBox="0 0 448 512" id="instagram" >
      <path d="M224.1 141c-63.6 0-114.9 51.3-114.9 114.9s51.3 114.9 114.9 114.9S339 319.5 339 255.9 287.7 141 224.1 141zm0 189.6c-41.1 0-74.7-33.5-74.7-74.7s33.5-74.7 74.7-74.7 74.7 33.5 74.7 74.7-33.6 74.7-74.7 74.7zm146.4-194.3c0 14.9-12 26.8-26.8 26.8-14.9 0-26.8-12-26.8-26.8s12-26.8 26.8-26.8 26.8 12 26.8 26.8zm76.1 27.2c-1.7-35.9-9.9-67.7-36.2-93.9-26.2-26.2-58-34.4-93.9-36.2-37-2.1-147.9-2.1-184.9 0-35.8 1.7-67.6 9.9-93.9 36.1s-34.4 58-36.2 93.9c-2.1 37-2.1 147.9 0 184.9 1.7 35.9 9.9 67.7 36.2 93.9s58 34.4 93.9 36.2c37 2.1 147.9 2.1 184.9 0 35.9-1.7 67.7-9.9 93.9-36.2 26.2-26.2 34.4-58 36.2-93.9 2.1-37 2.1-147.8 0-184.8zM398.8 388c-7.8 19.6-22.9 34.7-42.6 42.6-29.5 11.7-99.5 9-132.1 9s-102.7 2.6-132.1-9c-19.6-7.8-34.7-22.9-42.6-42.6-11.7-29.5-9-99.5-9-132.1s-2.6-102.7 9-132.1c7.8-19.6 22.9-34.7 42.6-42.6 29.5-11.7 99.5-9 132.1-9s102.7-2.6 132.1 9c19.6 7.8 34.7 22.9 42.6 42.6 11.7 29.5 9 99.5 9 132.1s2.7 102.7-9 132.1z"/>
   </symbol>

   <symbol viewBox="0 0 448 512" id="watsup" >
      <path d="M380.9 97.1C339 55.1 283.2 32 223.9 32c-122.4 0-222 99.6-222 222 0 39.1 10.2 77.3 29.6 111L0 480l117.7-30.9c32.4 17.7 68.9 27 106.1 27h.1c122.3 0 224.1-99.6 224.1-222 0-59.3-25.2-115-67.1-157zm-157 341.6c-33.2 0-65.7-8.9-94-25.7l-6.7-4-69.8 18.3L72 359.2l-4.4-7c-18.5-29.4-28.2-63.3-28.2-98.2 0-101.7 82.8-184.5 184.6-184.5 49.3 0 95.6 19.2 130.4 54.1 34.8 34.9 56.2 81.2 56.1 130.5 0 101.8-84.9 184.6-186.6 184.6zm101.2-138.2c-5.5-2.8-32.8-16.2-37.9-18-5.1-1.9-8.8-2.8-12.5 2.8-3.7 5.6-14.3 18-17.6 21.8-3.2 3.7-6.5 4.2-12 1.4-32.6-16.3-54-29.1-75.5-66-5.7-9.8 5.7-9.1 16.3-30.3 1.8-3.7.9-6.9-.5-9.7-1.4-2.8-12.5-30.1-17.1-41.2-4.5-10.8-9.1-9.3-12.5-9.5-3.2-.2-6.9-.2-10.6-.2-3.7 0-9.7 1.4-14.8 6.9-5.1 5.6-19.4 19-19.4 46.3 0 27.3 19.9 53.7 22.6 57.4 2.8 3.7 39.1 59.7 94.8 83.8 35.2 15.2 49 16.5 66.6 13.9 10.7-1.6 32.8-13.4 37.4-26.4 4.6-13 4.6-24.1 3.2-26.4-1.3-2.5-5-3.9-10.5-6.6z"/>
   </symbol>

   <symbol viewBox="0 0 24 24" id="watsup2" >
      <path d="M19.0508 4.91006C18.134 3.98399 17.042 3.24973 15.8384 2.75011C14.6349 2.25049 13.3439 1.99552 12.0408 2.00006C6.58078 2.00006 2.13078 6.45006 2.13078 11.9101C2.13078 13.6601 2.59078 15.3601 3.45078 16.8601L2.05078 22.0001L7.30078 20.6201C8.75078 21.4101 10.3808 21.8301 12.0408 21.8301C17.5008 21.8301 21.9508 17.3801 21.9508 11.9201C21.9508 9.27006 20.9208 6.78006 19.0508 4.91006ZM12.0408 20.1501C10.5608 20.1501 9.11078 19.7501 7.84078 19.0001L7.54078 18.8201L4.42078 19.6401L5.25078 16.6001L5.05078 16.2901C4.22853 14.977 3.79192 13.4593 3.79078 11.9101C3.79078 7.37006 7.49078 3.67006 12.0308 3.67006C14.2308 3.67006 16.3008 4.53006 17.8508 6.09006C18.6183 6.85402 19.2265 7.76272 19.6402 8.76348C20.0539 9.76425 20.2648 10.8372 20.2608 11.9201C20.2808 16.4601 16.5808 20.1501 12.0408 20.1501ZM16.5608 13.9901C16.3108 13.8701 15.0908 13.2701 14.8708 13.1801C14.6408 13.1001 14.4808 13.0601 14.3108 13.3001C14.1408 13.5501 13.6708 14.1101 13.5308 14.2701C13.3908 14.4401 13.2408 14.4601 12.9908 14.3301C12.7408 14.2101 11.9408 13.9401 11.0008 13.1001C10.2608 12.4401 9.77078 11.6301 9.62078 11.3801C9.48078 11.1301 9.60078 11.0001 9.73078 10.8701C9.84078 10.7601 9.98078 10.5801 10.1008 10.4401C10.2208 10.3001 10.2708 10.1901 10.3508 10.0301C10.4308 9.86006 10.3908 9.72006 10.3308 9.60006C10.2708 9.48006 9.77078 8.26006 9.57078 7.76006C9.37078 7.28006 9.16078 7.34006 9.01078 7.33006H8.53078C8.36078 7.33006 8.10078 7.39006 7.87078 7.64006C7.65078 7.89006 7.01078 8.49006 7.01078 9.71006C7.01078 10.9301 7.90078 12.1101 8.02078 12.2701C8.14078 12.4401 9.77078 14.9401 12.2508 16.0101C12.8408 16.2701 13.3008 16.4201 13.6608 16.5301C14.2508 16.7201 14.7908 16.6901 15.2208 16.6301C15.7008 16.5601 16.6908 16.0301 16.8908 15.4501C17.1008 14.8701 17.1008 14.3801 17.0308 14.2701C16.9608 14.1601 16.8108 14.1101 16.5608 13.9901Z"/>
   </symbol>

   <symbol viewBox="0 0 50 50" id="telegram" >
      <path d="M46.137,6.552c-0.75-0.636-1.928-0.727-3.146-0.238l-0.002,0C41.708,6.828,6.728,21.832,5.304,22.445	c-0.259,0.09-2.521,0.934-2.288,2.814c0.208,1.695,2.026,2.397,2.248,2.478l8.893,3.045c0.59,1.964,2.765,9.21,3.246,10.758	c0.3,0.965,0.789,2.233,1.646,2.494c0.752,0.29,1.5,0.025,1.984-0.355l5.437-5.043l8.777,6.845l0.209,0.125	c0.596,0.264,1.167,0.396,1.712,0.396c0.421,0,0.825-0.079,1.211-0.237c1.315-0.54,1.841-1.793,1.896-1.935l6.556-34.077	C47.231,7.933,46.675,7.007,46.137,6.552z M22,32l-3,8l-3-10l23-17L22,32z"/>
   </symbol>

   <symbol viewBox="0 0 20 20" id="telegram2" >
      <path d="M18.5068 2.04595C18.4099 1.96233 18.2921 1.90672 18.166 1.88511C18.0399 1.86349 17.9103 1.8767 17.7911 1.92329L1.95831 8.11939C1.73393 8.20664 1.54396 8.36443 1.41701 8.56899C1.29005 8.77355 1.23299 9.01382 1.2544 9.25362C1.27582 9.49342 1.37456 9.71977 1.53575 9.8986C1.69694 10.0774 1.91186 10.1991 2.14816 10.2452L6.2505 11.0506V15.6249C6.24969 15.874 6.32374 16.1177 6.46303 16.3242C6.60233 16.5308 6.80046 16.6908 7.03175 16.7835C7.26268 16.8778 7.51664 16.9004 7.76061 16.8484C8.00458 16.7964 8.22727 16.6723 8.39972 16.492L10.3778 14.4405L13.5161 17.1874C13.7425 17.3882 14.0346 17.4993 14.3372 17.4999C14.4698 17.4998 14.6016 17.4789 14.7278 17.4381C14.9341 17.3727 15.1195 17.2544 15.2658 17.095C15.412 16.9356 15.514 16.7406 15.5614 16.5295L18.7325 2.73423C18.7609 2.60982 18.7549 2.48003 18.7151 2.35878C18.6753 2.23753 18.6033 2.12939 18.5068 2.04595ZM13.7302 4.85845L6.73097 9.87095L2.85597 9.11079L13.7302 4.85845ZM7.5005 15.6249V11.9155L9.43722 13.6139L7.5005 15.6249ZM14.3388 16.2499L7.87941 10.5858L17.1763 3.92251L14.3388 16.2499Z"/>
   </symbol>

   <symbol viewBox="0 0 1440 859" preserveAspectRatio="none" fill="none" id="about-line" >
      <path d="M-127 1C-1.5 1 286.3 105 433.5 521C580.7 937 1232.17 881.667 1539.5 802" stroke="black"/>
   </symbol>

   <symbol viewBox="0 0 1340 507" preserveAspectRatio="none" fill="none" id="wellness-line" >
      <path d="M1340 1C1287.19 1 1102.95 251.688 950.902 258.617C812.094 264.944 759.616 195.589 599.458 233.106C321.874 298.13 248.399 549.072 0.99995 499.583" stroke="black"/>
   </symbol>

   <symbol viewBox="0 0 1440 1428" preserveAspectRatio="none" fill="none" id="exclusive-line" >
      <path d="M1440 1C1331.56 1 1082.87 174.092 955.68 866.458C828.486 1558.82 265.563 1466.73 3.18289e-05 1334.14" stroke="black"/>
   </symbol>

   <symbol viewBox="0 0 32 33" id="next" >
      <circle class="hover-area" cx="16" cy="16" r="16" transform="matrix(-1 0 0 1 32 0.720703)"/>
      <path d="M11.8862 17.4495C11.6101 17.4495 11.3862 17.2256 11.3862 16.9495C11.3862 16.6733 11.6101 16.4495 11.8862 16.4495L11.8862 17.4495ZM19.0969 16.5959C19.2922 16.7912 19.2922 17.1078 19.0969 17.303L15.9149 20.485C15.7197 20.6803 15.4031 20.6803 15.2078 20.485C15.0126 20.2897 15.0126 19.9732 15.2078 19.7779L18.0363 16.9495L15.2078 14.121C15.0126 13.9258 15.0126 13.6092 15.2078 13.4139C15.4031 13.2187 15.7197 13.2187 15.9149 13.4139L19.0969 16.5959ZM11.8862 16.4495L18.7434 16.4495L18.7434 17.4495L11.8862 17.4495L11.8862 16.4495Z" fill="#1C1E25"/>
   </symbol>

   <symbol viewBox="0 0 32 33" id="prev" >
      <circle class="hover-area" cx="16" cy="16.7207" r="16"/>
      <path d="M20.1138 17.4495C20.3899 17.4495 20.6138 17.2256 20.6138 16.9495C20.6138 16.6733 20.3899 16.4495 20.1138 16.4495L20.1138 17.4495ZM12.9031 16.5959C12.7078 16.7912 12.7078 17.1078 12.9031 17.303L16.0851 20.485C16.2803 20.6803 16.5969 20.6803 16.7922 20.485C16.9874 20.2897 16.9874 19.9732 16.7922 19.7779L13.9637 16.9495L16.7922 14.121C16.9874 13.9258 16.9874 13.6092 16.7922 13.4139C16.5969 13.2187 16.2803 13.2187 16.0851 13.4139L12.9031 16.5959ZM20.1138 16.4495L13.2566 16.4495L13.2566 17.4495L20.1138 17.4495L20.1138 16.4495Z" fill="#1C1E25"/>
   </symbol>

   <symbol viewBox="0 0 941 472" preserveAspectRatio="none" fill="none" id="insta-line" >
      <path d="M0 1C70.7891 1 233.125 58.0498 316.154 286.249C399.183 514.448 766.647 484.095 940 440.393" stroke="black"/>
   </symbol>

   <symbol viewBox="0 0 1441 547" preserveAspectRatio="none" fill="none" id="table-line" >
      <path d="M1441 1C1384.2 1 1186.07 271.544 1022.55 279.023C873.274 285.85 816.838 211.002 644.6 251.49C346.077 321.665 267.06 592.483 1.00005 539.074" stroke="#1C1E25"/>
   </symbol>

   <symbol viewBox="0 0 1340 130" preserveAspectRatio="none" fill="none" id="soc-line" >
      <path d="M1 20.3152C192.333 -2.68483 644.7 -23.9848 923.5 74.8152C1202.3 173.615 1317 115.982 1339.5 74.8152" stroke="#5D5F63"/>
   </symbol>

   <symbol viewBox="0 0 1490 319" preserveAspectRatio="none" fill="none" id="work-line" >
      <path d="M1490 1C1431.27 1 1226.39 158.362 1057.31 162.712C902.956 166.683 844.599 123.148 666.5 146.698C357.819 187.515 276.114 345.037 1.00002 313.972" stroke="#1C1E25"/>
   </symbol>

   <symbol viewBox="0 0 670 521" preserveAspectRatio="none" fill="none" id="work-bg1" >
      <path fill-rule="evenodd" clip-rule="evenodd" d="M2.08332 294.394C-11.3423 158.419 37.5686 87.3093 223.559 48.577C402.499 11.3131 516.464 -46.6395 613.352 65.4401C682.691 145.652 693.87 342.182 615.994 418.428C536.563 496.196 402.753 539.689 271.824 513.236C125.894 483.753 12.5922 400.827 2.08332 294.394Z" fill="#F7F3F0"/>
   </symbol>

   <symbol viewBox="0 0 367 273" preserveAspectRatio="none" fill="none" id="work-bg2" >
      <path fill-rule="evenodd" clip-rule="evenodd" d="M365.256 171.783C354.584 245.08 319.459 276.075 216.158 272.056C116.773 268.19 49.0059 283.73 12.4719 212.057C-13.6743 160.763 6.09596 55.9037 57.1913 26.0057C109.307 -4.48928 185.667 -9.81936 251.369 21.2707C324.597 55.9229 373.61 114.411 365.256 171.783Z" fill="#E8DFCE"/>
   </symbol>




</svg>